<svg width="59" height="56" viewBox="0 0 59 56" fill="none" xmlns="http://www.w3.org/2000/svg">
<path d="M37.7524 32.8283V43.5044L46.5573 48.8425L46.5573 38.1663L37.7524 32.8283ZM37.7524 32.8283L29.5344 28.3856M29.5344 19.0142L38.3394 13.6761V3L29.5344 8.33807L29.5344 19.0142ZM29.5344 19.0142V28.3856M22.1281 33.1305L12.9777 27.7924L4 32.8283L13.1504 38.1663L22.1281 33.1305ZM22.1281 33.1305L29.5344 28.3856M13.0985 8.51605V19.1922L21.9034 24.5303V13.8541L13.0985 8.51605ZM29.8279 36.9858V47.6619L21.0229 53L21.0229 42.3239L29.8279 36.9858ZM55 23.6406L45.8496 18.3025L36.8719 23.3383L46.0223 28.6764L55 23.6406Z" stroke="white" stroke-width="3"/>
</svg>
