<svg width="24" height="24" viewBox="0 0 24 24" fill="none" xmlns="http://www.w3.org/2000/svg">
<path d="M2.0498 2.05005H4.0498L6.7098 14.47C6.80738 14.9249 7.06048 15.3315 7.42552 15.6199C7.79056 15.9083 8.24471 16.0604 8.7098 16.05H18.4898C18.945 16.0493 19.3863 15.8933 19.7408 15.6079C20.0954 15.3224 20.3419 14.9246 20.4398 14.48L22.0898 7.05005H5.1198M8.99976 21C8.99976 21.5523 8.55204 22 7.99976 22C7.44747 22 6.99976 21.5523 6.99976 21C6.99976 20.4477 7.44747 20 7.99976 20C8.55204 20 8.99976 20.4477 8.99976 21ZM19.9998 21C19.9998 21.5523 19.552 22 18.9998 22C18.4475 22 17.9998 21.5523 17.9998 21C17.9998 20.4477 18.4475 20 18.9998 20C19.552 20 19.9998 20.4477 19.9998 21Z" stroke="white" stroke-width="2" stroke-linecap="round" stroke-linejoin="round"/>
</svg>
